<svg xmlns="http://www.w3.org/2000/svg" xmlns:xlink="http://www.w3.org/1999/xlink" viewBox="0 0 976.49 614.92"><defs><style>.cls-1{font-size:91.85px;fill:#2a5795;letter-spacing:-0.01em;}.cls-1,.cls-4{font-family:Quicksand-Bold, Quicksand;font-weight:700;}.cls-2{letter-spacing:-0.07em;}.cls-3{letter-spacing:0em;}.cls-4{font-size:24.44px;fill:#2f81bc;}.cls-5{fill:url(#linear-gradient);}.cls-6{fill:url(#linear-gradient-2);}.cls-7{fill:url(#linear-gradient-3);}.cls-8{fill:url(#linear-gradient-4);}</style><linearGradient id="linear-gradient" x1="585.7" y1="23.5" x2="368.77" y2="431.11" gradientUnits="userSpaceOnUse"><stop offset="0" stop-color="#273578"/><stop offset="1" stop-color="#3ea6de"/></linearGradient><linearGradient id="linear-gradient-2" x1="656.2" y1="61.02" x2="439.27" y2="468.63" xlink:href="#linear-gradient"/><linearGradient id="linear-gradient-3" x1="616.16" y1="39.71" x2="399.23" y2="447.32" xlink:href="#linear-gradient"/><linearGradient id="linear-gradient-4" x1="560.12" y1="9.89" x2="343.2" y2="417.5" xlink:href="#linear-gradient"/></defs><title>Asset 1</title><g id="Layer_2" data-name="Layer 2"><g id="Layer_1-2" data-name="Layer 1"><text class="cls-1" transform="translate(0 559.35)">ww<tspan class="cls-2" x="156.32" y="0">w</tspan><tspan class="cls-3" x="228.97" y="0">.smart-apps.app</tspan></text><text class="cls-4" transform="translate(416.95 610.33)">Smart Apps</text><polygon class="cls-5" points="492.71 15.46 649.91 106.22 658.83 101.06 483.78 0 483.78 30.44 573.7 82.6 578.18 74.88 492.71 25.3 492.71 15.46"/><polygon class="cls-6" points="662.49 324.51 576.23 374.08 571.87 366.5 653.54 319.34 630.85 306.24 630.85 146.73 511.99 78.11 511.99 88.41 621.93 151.88 621.93 311.39 635.69 319.34 488.25 404.47 407.88 357.85 394.45 381 483.79 432.83 483.78 442.67 326.58 351.91 317.66 357.06 492.71 458.13 492.71 427.69 406.65 377.76 411.12 370.04 488.24 414.78 564.14 370.96 572.93 386.26 662.48 334.81 671 339.73 513.81 430.49 513.81 440.79 688.85 339.73 662.49 324.51"/><polygon class="cls-7" points="658.03 125.89 657.82 225.38 648.9 225.36 649.08 136.21 483.78 40.77 483.78 66.97 345.64 146.73 345.64 178.12 345.64 283.97 345.64 283.97 354.56 278.82 354.56 178.12 354.56 151.88 492.71 72.13 492.71 56.23 640.15 141.36 639.96 234.27 666.73 234.32 666.94 131.04 675.47 126.12 675.47 307.64 684.39 312.8 684.39 110.67 658.03 125.89"/><path class="cls-8" d="M598.18,320,488.25,383.43,352.33,305l-2.23-1.29-13.76,7.95V141.36L416.9,95.07,403.56,71.86,314,123.32l-8.52-4.92,157.2-90.76V17.33l-175,101.07L314,133.62l86.27-49.57,4.44,7.73-77.3,44.42v87.64l-17.65,0-.21,103.27L301,332V150.48l-8.92-5.15V347.46l26.36-15.22.21-99.49h8.74v94.31L350.1,314l130,75c7,4,7,4,8.17,4h1.19L607.1,325.11h0Z"/></g></g></svg>